<svg xmlns="http://www.w3.org/2000/svg" xmlns:xlink="http://www.w3.org/1999/xlink" width="250" height="250" version="1.1" viewBox="0 0 2604.17 2604.17" xml:space="preserve" style="shape-rendering:geometricPrecision;text-rendering:geometricPrecision;image-rendering:optimizeQuality;fill-rule:evenodd;clip-rule:evenodd"><defs><style type="text/css">.fil0{fill:#ff0073}</style></defs><g id="Layer_x0020_1"><metadata id="CorelCorpID_0Corel-Layer"/><path d="M1296.98 592.04l66.02 107.59c10.89,18.04 4.69,2.85 13.22,27.63l34.72 98.03c8.09,25.61 8.37,132.45 1.24,157.69 -1.28,4.56 -4.72,10.52 -6.52,13.9 -0.54,1.01 -1.3,2.26 -1.85,3.26l-26.15 35.12c-30.96,30.56 -59.14,26.55 -101.11,26.55 -19.49,0 -40.81,-17.7 -53.14,-28.56 -34.46,-30.39 -47.05,-92.07 -42.76,-128.2 6.99,-58.89 18.26,-121.52 44.69,-175.29 26.48,-53.88 4.08,-18.44 41.32,-81.23 10.83,-18.26 20.02,-37.04 30.31,-56.49zm-285.96 311.48c0,59.1 1.81,116.81 29.81,169.34l31.38 50.32c49.5,63.28 120.4,111.33 209.09,112.37 42.57,0.5 95.44,-2.06 122.71,-15.64 52.96,-26.36 99.81,-57.54 131.34,-108.65 67.02,-108.65 52.68,-145.99 52.68,-269.02 0,-24.52 -6.06,-35.78 -11.7,-59.79 -11.53,-49.03 -45.77,-142.06 -69.44,-180.77l-33.63 -63.04c-18.25,-30.89 -42.87,-54.3 -58.84,-84.48 31.25,-46.67 153.66,-132.49 207.86,-145.28 50.66,-11.96 99.35,-34.04 154.06,-37.22 135.28,-7.84 256.02,15.66 368.3,95.67 8.82,6.29 11.7,9.27 20.74,15 30.15,19.07 78.44,63.89 101.16,92.88 6.59,8.41 9.66,11.29 15.92,19.82l81.22 132.91c4,9.09 7.74,20.39 11.41,29.76l21.84 54.76c14.27,42.44 33.65,149.69 33.65,196.14 0,69.44 0.11,136.15 -15.6,203.98 -2.64,11.39 -5.29,16.28 -7.72,28.03 -2.83,13.74 -1.61,22.66 -4.46,36.39 -12.78,61.55 -33.72,114.06 -55.26,174.53l-66.72 142.63c-0.57,0.96 -1.37,2.21 -1.93,3.18 -2.56,4.43 -5.04,9.48 -7.07,13.36l-27.32 44.17c-0.64,0.86 -1.58,2.03 -2.2,2.91l-64.16 99.24c-0.67,0.82 -1.67,1.94 -2.35,2.76 -45.86,54.26 -83.45,110.63 -134.57,161.6 -44.33,44.19 -86.87,90.93 -137.6,127.92l-107.49 86.55c-21.28,20.03 -47.56,34.31 -72.04,50.52l-8.9 6.42c-5.02,3.69 -5.93,4.41 -11.76,8.66 -9.12,6.64 -12.01,9.33 -20.68,15.07l-218 129.23c-30.66,15.94 -105.57,58.87 -143.66,74.69l-3.54 188.35c31.76,-4.73 60.83,-25.93 109.67,-50.35 22.46,-11.23 37.14,-18.76 58.05,-28.76 39.52,-18.9 76.08,-43.87 117.47,-61.25l170.7 -105.04c22.94,-12.48 29.52,-22.4 51.03,-35.77l263.53 -211.36c0.81,-0.68 1.98,-1.63 2.79,-2.31l242.8 -278.05 52.53 -80.37c5.15,-6.76 4.41,-4.88 8.92,-11.7l80.93 -158.74c5.63,-13.92 9.18,-17.48 15.13,-30.83 4.05,-9.09 2.44,-6.07 6.35,-14.07l71.15 -213.31c0.25,-0.72 0.8,-2.09 1.02,-2.79 11.69,-37.16 34.55,-252.14 34.55,-284.83 0,-46.94 -20.96,-212.58 -35.04,-256.02 -18.61,-57.44 -53.57,-137.08 -74.16,-176.05l-124.48 -171.69c-5.54,-5.65 -7.2,-7.75 -12.23,-13.3l-7.34 -7.98c-71.25,-71.26 -153.51,-121.76 -245.38,-163.13 -11.74,-5.28 -23.7,-11 -36.09,-14.97l-117.39 -30.69c-95.4,-18.48 -219.13,-9.86 -309.74,14.98 -23.21,6.36 -46.32,14.28 -65.41,21.39l-65.56 26.36c-21.75,8.22 -32.41,21.35 -54.39,32.41 -91.31,45.98 -106.82,88.63 -154.91,120.83 -17.6,-11.78 -28.24,-27.46 -44.71,-42.1 -15.84,-14.07 -35.83,-27.15 -52.29,-39.62 -17.23,-13.05 -32.91,-22.29 -52.08,-34.73l-42.26 -24.11c-10.52,-5.65 -5.33,-3.56 -16.67,-8.87 -24.5,-11.49 -49.69,-21.92 -75.4,-31.15l-50.37 166.43c57.96,22.08 76.84,31.76 142.8,77.48l22.98 17.86c17.31,16.11 37.61,32.27 50.54,51.59 -5.36,10.13 -7.35,12.43 -13.35,21.87l-92.92 157.83c-40.58,78.41 -67.35,179 -67.35,269.66zm121.98 1342.82c-50.22,-26.24 -97.08,-60.77 -146.77,-87.41l-152.11 -103.21c-15.3,-12.57 -31.47,-24.25 -47.75,-35.83l-111.73 129.14c12.74,10.28 25.39,21.09 38.15,33.13 47.63,44.94 289.19,192.86 344.3,217.4 12.83,5.72 14.63,5.27 27.52,13.33 14.38,9 14.12,9.96 29.04,16.91l15.77 7.52 3.59 -190.99zm-491.37 -348.71c-39.53,-37.44 -74.25,-71.96 -122.61,-124.24 -37.33,-40.34 -73.23,-80.58 -102.46,-127.33l-57.86 -89.67 -160.78 72.76c21.07,33.93 49.8,81.42 69.95,104.31l18.74 27.21c26.32,37.06 76.47,106.52 107.73,137.38 12.19,12.03 13.34,9 24.3,21.66l32.75 33.63c3.04,3.04 6.4,7.06 9.71,10.72 23.52,26.01 45.21,47.72 65.52,66.5l115.01 -132.93zm-372.4 -508.7l-58.37 -160.15c-27.52,-133.29 -35.34,-153.54 -36.94,-275.97l-173.9 0c0.36,60.94 2.46,126.96 14.27,176.37 21.76,91 21.57,123.39 53.39,212.14l43.16 119.28 158.38 -71.67zm-77.7 -625.58l0.91 -4.38 7.81 -27.93c7.32,-15.78 5.52,-6.57 8.87,-26.88 8.13,-49.48 46.43,-113.4 70.66,-154.01 16.41,-27.52 35.86,-53.22 57.37,-77.26l-119.13 -119.2 -78.45 97.1c-0.59,0.93 -1.43,2.16 -2.03,3.07 -0.59,0.92 -1.47,2.13 -2.07,3.04 -54.55,84.4 -90.37,177.15 -112.73,275.35 -3.22,14.11 -3.57,20.68 -6.12,31.09l174.91 0zm293.34 -410.67l148.11 -67.2 147.11 -10.43 53.57 -176.98c-59.23,-6.05 -119.13,-4.66 -178.01,5.82 -83.51,14.87 -216.75,62.78 -299.03,120.46l128.25 128.33z" class="fil0"/></g></svg>